# xmcd CD database file
#
# Track frame offsets:
#	150
#	32483
#	63338
#	91467
#	114168
#	146339
#	179059
#	208653
#	232967
#	267461
#
# Disc length: 4238 seconds
#
# Revision: 0
# Processed by: cddbd v1.5.2PL0 Copyright (c) Steve Scherf et al.
# Submitted via: CDex 1.51
#
DISCID=88108c0a
DTITLE=S.M.B Jazz and Funk Quartet - S.M.B Jazz and Funk Quartet
DYEAR=2006
DGENRE=Jazz
TTITLE0=Fönster som fortfarande lyser
TTITLE1=En nystämd flygel
TTITLE2=Faber Castell
TTITLE3=Mardrömmen
TTITLE4=Den blå fällkniven
TTITLE5=Creative Lobster
TTITLE6=En ny syn på månen
TTITLE7=Spöken i ryggen
TTITLE8=Kvartcymbalen
TTITLE9=First Try
EXTD=YEAR: 2006
EXTT0=
EXTT1=
EXTT2=
EXTT3=
EXTT4=
EXTT5=
EXTT6=
EXTT7=
EXTT8=
EXTT9=
PLAYORDER=
